<svg id="Layer_1" data-name="Layer 1" xmlns="http://www.w3.org/2000/svg" viewBox="0 0 140 140"><defs><style>.cls-1{fill:#0065ff;}.cls-2{fill:#fafbfc;}.cls-3{fill:none;stroke:#c1c7d0;stroke-miterlimit:10;stroke-width:2px;}.cls-4{fill:#ffc400;}.cls-5{fill:#ffab00;}.cls-6{fill:#79e2f2;}.cls-7{fill:#00c7e5;}</style></defs><title>Artboard 41</title><circle class="cls-1" cx="69.87" cy="70" r="70"/><rect class="cls-2" x="40.63" y="32.5" width="61" height="77"/><line class="cls-3" x1="56.8" y1="45" x2="83.47" y2="45"/><rect class="cls-3" x="49.26" y="53.14" width="43.75" height="30.5"/><line class="cls-3" x1="48.24" y1="89.44" x2="93.26" y2="89.44"/><line class="cls-3" x1="48.62" y1="94.44" x2="93.64" y2="94.44"/><path class="cls-4" d="M43.18,64.38H25.94c4.64,0,4.24-17.24,4.24-17.24H47.42S48.08,64.38,43.18,64.38Z"/><rect class="cls-5" x="30.18" y="47.15" width="17.27" height="2.15"/><path class="cls-4" d="M75.11,115.79H57.87c4.64,0,4.24-17.24,4.24-17.24H79.35S80,115.79,75.11,115.79Z"/><rect class="cls-5" x="62.12" y="98.56" width="17.27" height="2.15"/><rect class="cls-3" x="62.12" y="53.14" width="30.21" height="30.5"/><path class="cls-6" d="M102.45,80H85.22c4.64,0,4.24-17.24,4.24-17.24h17.24S107.36,80,102.45,80Z"/><rect class="cls-7" x="89.46" y="62.77" width="17.27" height="2.15"/><rect class="cls-3" x="62.12" y="53.14" width="30.21" height="7.8"/></svg>