<svg id="Layer_1" data-name="Layer 1" xmlns="http://www.w3.org/2000/svg" xmlns:xlink="http://www.w3.org/1999/xlink" viewBox="0 0 140 140"><defs><style>.cls-1,.cls-6{fill:none;}.cls-2{fill:#0065ff;}.cls-3{fill:#4c9aff;}.cls-4{fill:#00b8d9;}.cls-5{fill:#ffc400;}.cls-6{stroke:#ff8b00;stroke-linecap:round;stroke-miterlimit:10;stroke-width:6px;}.cls-7{clip-path:url(#clip-path);}.cls-8{fill:#cdf1f5;}</style><clipPath id="clip-path"><circle class="cls-1" cx="-90" cy="70" r="70"/></clipPath></defs><title>Incident communication reviews</title><circle class="cls-2" cx="70" cy="70" r="70"/><path class="cls-3" d="M99.42,87.23S99,108.77,113.9,108.77c-7.24-6.59-1.35-15.69-1.35-15.69Z"/><path class="cls-4" d="M45.19,70h0A24.46,24.46,0,0,1,69.64,45.53H32.8A24.46,24.46,0,0,0,8.34,70h0A24.46,24.46,0,0,0,32.8,94.44H69.64A24.45,24.45,0,0,1,45.19,70Z"/><path class="cls-3" d="M106.82,45.53H70A24.46,24.46,0,0,1,94.43,70h0A24.45,24.45,0,0,1,70,94.44h36.84A24.46,24.46,0,0,0,131.28,70h0A24.46,24.46,0,0,0,106.82,45.53Z"/><rect class="cls-5" x="45.19" y="45.53" width="49.24" height="48.91" rx="24.45" ry="24.45"/><path class="cls-4" d="M40.9,87.23s.4,21.54-14.48,21.54c7.24-6.59,1.34-15.69,1.34-15.69Z"/><line class="cls-6" x1="60.34" y1="61.12" x2="80.11" y2="80.88"/><line class="cls-6" x1="80.11" y1="61.12" x2="60.34" y2="80.88"/><g class="cls-7"><path class="cls-8" d="M-145.78,42v76.72c0,4.23,3.84,7.65,8.57,7.65H8.53c4.73,0,8.57-3.42,8.57-7.65V42Z"/><path class="cls-2" d="M8.53,32H-141a4.58,4.58,0,0,0-4.82,4.29v5.9H17.1V39.59C17.1,35.37,13.26,32,8.53,32Z"/></g></svg>