<svg id="Layer_1" data-name="Layer 1" xmlns="http://www.w3.org/2000/svg" xmlns:xlink="http://www.w3.org/1999/xlink" viewBox="0 0 140 140"><defs><style>.cls-1,.cls-6{fill:none;}.cls-2{clip-path:url(#clip-path);}.cls-3{fill:#1db9d4;}.cls-4{fill:#cdf1f5;}.cls-5{fill:#0065ff;}.cls-6{stroke:#00c7e5;stroke-miterlimit:10;stroke-width:2px;}.cls-7{fill:#ffc400;}.cls-8{fill:#42526e;}.cls-9{fill:#ff8b00;}.cls-10{fill:#ffab00;}</style><clipPath id="clip-path"><circle class="cls-1" cx="70" cy="70" r="70"/></clipPath></defs><title>Incident response values</title><g class="cls-2"><circle class="cls-3" cx="70" cy="70" r="70"/><path class="cls-4" d="M14.22,42v76.72c0,4.23,3.84,7.65,8.57,7.65H168.53c4.73,0,8.57-3.42,8.57-7.65V42Z"/><path class="cls-5" d="M168.53,32H19a4.58,4.58,0,0,0-4.82,4.29v5.9H177.1V39.59C177.1,35.37,173.26,32,168.53,32Z"/><polyline class="cls-6" points="97.82 66.36 87.32 66.36 87.32 100.02 97.82 100.02"/><path class="cls-7" d="M50,66.15,32.4,96.7a3.2,3.2,0,0,0,2.78,4.8H70.45a3.2,3.2,0,0,0,2.78-4.8L55.59,66.15A3.2,3.2,0,0,0,50,66.15Z"/><path class="cls-8" d="M54.08,90.52H51.55L50.72,77.7h4.19ZM52.8,92.21a2.08,2.08,0,0,1,2.08,2.08,2.06,2.06,0,1,1-2.08-2.08Z"/><line class="cls-6" x1="77.82" y1="82.36" x2="97.82" y2="82.36"/><rect class="cls-5" x="101.94" y="78.02" width="9.75" height="9.75"/><rect class="cls-9" x="101.94" y="61.26" width="9.75" height="9.75" rx="4.87" ry="4.87"/><polygon class="cls-7" points="106.82 93.86 101.69 97.58 103.65 103.61 109.98 103.61 111.94 97.58 106.82 93.86"/></g><path class="cls-10" d="M23.11,39.48a2.42,2.42,0,1,1,2.42-2.41A2.41,2.41,0,0,1,23.11,39.48Z"/><path class="cls-10" d="M31.53,39.48A2.42,2.42,0,1,1,34,37.07,2.41,2.41,0,0,1,31.53,39.48Z"/><path class="cls-10" d="M39.68,39.48a2.42,2.42,0,1,1,2.42-2.41A2.42,2.42,0,0,1,39.68,39.48Z"/></svg>