<svg id="Layer_1" data-name="Layer 1" xmlns="http://www.w3.org/2000/svg" xmlns:xlink="http://www.w3.org/1999/xlink" viewBox="0 0 140 140"><defs><style>.cls-1,.cls-7{fill:none;}.cls-2{clip-path:url(#clip-path);}.cls-3{fill:#3384ff;}.cls-4{clip-path:url(#clip-path-2);}.cls-5{fill:#0065ff;}.cls-6{fill:#ffab00;}.cls-7{stroke:#00b8d9;stroke-miterlimit:10;stroke-width:3px;}.cls-8{fill:#79e2f2;}.cls-9{fill:#00a3bf;}</style><clipPath id="clip-path"><circle class="cls-1" cx="-90.206" cy="-88.756" r="70"/></clipPath><clipPath id="clip-path-2"><circle class="cls-1" cx="70.129" cy="70" r="70"/></clipPath></defs><title>Artboard 44</title><g class="cls-2"><path class="cls-3" d="M19.664-23.756a111,111,0,0,1-111,111,111,111,0,0,1-111-111c0-33.76,19.84-63.5,45.42-71,5.62-1.65,1.46-21.42,10-23.47,13.12-2.96,15.88,17.29,23.71,14.63,11.2-3.8.09-26.27,14-27.34,13.65-1,9.09,17.89,14.06,17.67,11-.5,6.59-18.71,18-19,13-.32,11.21,21.19,17.67,23.18,8.67,2.67,6.55-15.15,21.28-13,9.25,1.32,5.52,26,13.19,27.88C5.654-86.936,19.664-53.876,19.664-23.756Z"/></g><g class="cls-4"><circle class="cls-5" cx="70.085" cy="70" r="70"/><path class="cls-6" d="M47.968,29.992l2.79,5.652a.311.311,0,0,0,.234.17l6.238.906a.311.311,0,0,1,.172.53l-4.514,4.4a.311.311,0,0,0-.089.275l1.066,6.213a.311.311,0,0,1-.451.327l-5.579-2.933a.311.311,0,0,0-.289,0l-5.579,2.933a.311.311,0,0,1-.451-.327l1.066-6.213a.311.311,0,0,0-.089-.275l-4.514-4.4a.311.311,0,0,1,.172-.53l6.238-.906a.311.311,0,0,0,.234-.17l2.79-5.652A.311.311,0,0,1,47.968,29.992Z"/><path class="cls-6" d="M97.266,9.156l2.79,5.652a.311.311,0,0,0,.234.17l6.238.906a.311.311,0,0,1,.172.53l-4.514,4.4a.311.311,0,0,0-.089.275l1.066,6.213a.311.311,0,0,1-.451.327L97.132,24.7a.311.311,0,0,0-.289,0l-5.579,2.933a.311.311,0,0,1-.451-.327l1.066-6.213a.311.311,0,0,0-.089-.275l-4.514-4.4a.311.311,0,0,1,.172-.53l6.238-.906a.311.311,0,0,0,.234-.17l2.79-5.652A.311.311,0,0,1,97.266,9.156Z"/><path class="cls-6" d="M117.148,59.567l2.79,5.652a.311.311,0,0,0,.234.17l6.238.906a.311.311,0,0,1,.172.53l-4.514,4.4a.311.311,0,0,0-.089.275l1.066,6.213a.311.311,0,0,1-.451.327l-5.579-2.933a.311.311,0,0,0-.289,0l-5.579,2.933a.311.311,0,0,1-.451-.327l1.066-6.213a.311.311,0,0,0-.089-.275l-4.514-4.4a.311.311,0,0,1,.172-.53l6.238-.906a.311.311,0,0,0,.234-.17l2.79-5.652A.311.311,0,0,1,117.148,59.567Z"/><polyline class="cls-7" points="30.514 133.472 38.799 97.476 45.084 93.663 70.129 144.251"/><polygon class="cls-8" points="32.145 105.855 23.611 91.785 60.259 68.181 70.013 84.261 32.145 105.855"/><ellipse class="cls-8" cx="65.136" cy="76.221" rx="6.036" ry="9.404" transform="translate(-30.085 44.831) rotate(-31.239)"/><ellipse class="cls-9" cx="27.878" cy="98.82" rx="6.036" ry="8.228" transform="translate(-47.207 28.786) rotate(-31.239)"/><polygon class="cls-8" points="10.96 115.561 5.214 106.087 23.916 93.818 30.483 104.645 10.96 115.561"/><ellipse class="cls-8" cx="27.2" cy="99.231" rx="4.064" ry="6.332" transform="translate(-47.519 28.493) rotate(-31.239)"/><ellipse class="cls-9" cx="8.087" cy="110.824" rx="4.064" ry="5.54" transform="translate(-56.302 20.262) rotate(-31.239)"/><rect class="cls-6" x="-2.634" y="106.422" width="5.804" height="18.289" transform="translate(98.94 55.404) rotate(58.761)"/><ellipse class="cls-6" cx="7.986" cy="110.885" rx="2.129" ry="2.902" transform="translate(-56.348 20.219) rotate(-31.239)"/></g></svg>