<svg id="Layer_1" data-name="Layer 1" xmlns="http://www.w3.org/2000/svg" viewBox="0 0 140 140"><defs><style>.cls-1{fill:#79e2f2;}.cls-2{fill:#00a3bf;}.cls-3{fill:#00c7e5;}.cls-4{fill:none;stroke:#0065ff;stroke-miterlimit:10;stroke-width:2px;}.cls-5{fill:#0052cc;}.cls-6{fill:#fff;}</style></defs><title>Project prioritization</title><path class="cls-1" d="M67.5.06A70,70,0,0,0,1.44,84.18H3.57C45.09,81.7,63.18,37.31,67.5.06Z"/><path class="cls-2" d="M127,29.33C109.61,74.69,68.8,113.05,22.75,121.64A70,70,0,0,0,127,29.33Z"/><path class="cls-3" d="M127,29.33A69.9,69.9,0,0,0,70,0c-.84,0-1.67,0-2.5.06C63.18,37.31,45.09,81.7,3.57,84.18H1.44a69.89,69.89,0,0,0,21.31,37.46C68.8,113.05,109.61,74.69,127,29.33Z"/><line class="cls-4" x1="70" x2="70" y2="140"/><line class="cls-4" x1="140" y1="70" y2="70"/><circle class="cls-5" cx="90.92" cy="56.25" r="1.92"/><circle class="cls-5" cx="113.92" cy="82.25" r="1.92"/><circle class="cls-5" cx="77.92" cy="112.25" r="1.92"/><circle class="cls-5" cx="36.14" cy="96.25" r="1.92"/><circle class="cls-5" cx="98.14" cy="44.25" r="1.92"/><circle class="cls-5" cx="129.14" cy="82.25" r="1.92"/><circle class="cls-5" cx="117.14" cy="95.25" r="1.92"/><circle class="cls-5" cx="76.14" cy="76.25" r="1.92"/><circle class="cls-5" cx="26.14" cy="109.25" r="1.92"/><circle class="cls-5" cx="63.14" cy="64.25" r="1.92"/><circle class="cls-5" cx="61.14" cy="129.25" r="1.92"/><circle class="cls-5" cx="82.14" cy="16.25" r="1.92"/><circle class="cls-6" cx="45.85" cy="27.8" r="8.55"/><path class="cls-5" d="M44.23,33l-4-4a.36.36,0,0,1,0-.51l1.65-1.65a.36.36,0,0,1,.51,0l2.08,2.08,4.64-4.64a.36.36,0,0,1,.51,0l1.65,1.65a.36.36,0,0,1,0,.51L44.74,33A.36.36,0,0,1,44.23,33Z"/><circle class="cls-6" cx="24.36" cy="43.33" r="8.55"/><path class="cls-5" d="M22.75,48.5l-4-4a.35.35,0,0,1,0-.5l1.65-1.65a.36.36,0,0,1,.51,0L23,44.44l4.64-4.64a.36.36,0,0,1,.51,0l1.65,1.65a.35.35,0,0,1,0,.5L23.25,48.5A.35.35,0,0,1,22.75,48.5Z"/><circle class="cls-6" cx="47.83" cy="54.02" r="8.55"/><path class="cls-5" d="M46.22,59.18l-4-4a.36.36,0,0,1,0-.51L43.88,53a.36.36,0,0,1,.51,0l2.08,2.08,4.64-4.64a.36.36,0,0,1,.51,0l1.65,1.65a.36.36,0,0,1,0,.51l-6.55,6.54A.35.35,0,0,1,46.22,59.18Z"/></svg>